Here is a light show that my friend did...

Format : Windows Media
File size : 142 MiB
Duration : 4mn 5s
Overall bit rate mode : Constant
Overall bit rate : 4 857 Kbps
Maximum Overall bit rate : 10.2 Mbps
Encoded date : UTC 2012-02-06 05:38:57.202
Cover : Y

Video
ID : 1
Format : VC-1
Format profile : MP@HL
Codec ID : WMV3
Codec ID/Info : Windows Media Video 9
Codec ID/Hint : WMV3
Description of the codec : Windows Media Video 9 - Professional
Duration : 4mn 5s
Bit rate mode : Constant
Bit rate : 10 000 Kbps
Width : 960 pixels
Height : 720 pixels
Display aspect ratio : 4:3
Frame rate : 29.970 fps
Bit depth : 8 bits
Scan type : Progressive
Bits/(Pixel*Frame) : 0.483
Stream size : 292 MiB

Audio
ID : 2
Format : WMA
Format profile : Pro
Codec ID : 162
Codec ID/Info : Windows Media Audio
Description of the codec : Windows Media Audio 10 Professional - 128 kbps, 48 kHz, 2 channel 16 bit (A/V) 1-pass CBR
Duration : 4mn 5s
Bit rate mode : Constant
Bit rate : 128 Kbps
Channel(s) : 2 channels
Sampling rate : 48.0 KHz
Bit depth : 16 bits
Stream size : 3.74 MiB (3%)